<svg height="512" viewBox="0 0 64 64" width="512" xmlns="http://www.w3.org/2000/svg"><g id="bank-finance-money-transfer-currency"><path d="m61 12h-38l19-9z" fill="#91dc5a"/><path d="m25 26h34v4h-34z" fill="#7ed63e"/><path d="m44 16h4v10h-4z" fill="#5eac24"/><path d="m36 16h4v10h-4z" fill="#5eac24"/><path d="m28 16h4v10h-4z" fill="#5eac24"/><path d="m52 16h4v10h-4z" fill="#5eac24"/><path d="m25 12h34v4h-34z" fill="#7ed63e"/><circle cx="42" cy="8" fill="#4e901e" r="2"/><path d="m40 16h4v10h-4z" fill="#4e901e"/><path d="m32 16h4v10h-4z" fill="#4e901e"/><path d="m48 16h4v10h-4z" fill="#4e901e"/><path d="m23 21-6-5v3h-10a2 2 0 0 0 -2 2v13h4v-11h8v3z" fill="#5eac24"/><path d="m41 52 6 5v-3h10a2 2 0 0 0 2-2v-13h-4v11h-8v-3z" fill="#ed1c24"/><path d="m25 12h34v1h-34z" fill="#5eac24"/><path d="m41 43h-38l19-9z" fill="#ffa733"/><path d="m5 57h34v4h-34z" fill="#ff9811"/><path d="m24 47h4v10h-4z" fill="#ee8700"/><path d="m16 47h4v10h-4z" fill="#ee8700"/><path d="m8 47h4v10h-4z" fill="#ee8700"/><path d="m32 47h4v10h-4z" fill="#ee8700"/><path d="m5 43h34v4h-34z" fill="#ff9811"/><circle cx="22" cy="39" fill="#ee8700" r="2"/><path d="m20 47h4v10h-4z" fill="#cc7400"/><path d="m12 47h4v10h-4z" fill="#cc7400"/><path d="m28 47h4v10h-4z" fill="#cc7400"/><path d="m5 43h34v1h-34z" fill="#ee8700"/><g fill="#231f20"><path d="m41.43 42.1-19-9a1 1 0 0 0 -.86 0l-19 9a1 1 0 0 0 .43 1.9h1v3a1 1 0 0 0 1 1h2v8h-2a1 1 0 0 0 -1 1v4a1 1 0 0 0 1 1h34a1 1 0 0 0 1-1v-4a1 1 0 0 0 -1-1h-2v-8h2a1 1 0 0 0 1-1v-3h1a1 1 0 0 0 .43-1.9zm-19.43-6.99 14.55 6.89h-29.1zm16 22.89v2h-32v-2zm-29-2v-8h2v8zm4 0v-8h2v8zm4 0v-8h2v8zm4 0v-8h2v8zm4 0v-8h2v8zm4 0v-8h2v8zm4 0v-8h2v8zm5-10h-32v-2h32z"/><path d="m25 39a3 3 0 1 0 -3 3 3 3 0 0 0 3-3zm-3 1a1 1 0 1 1 1-1 1 1 0 0 1 -1 1z"/><path d="m61.43 11.1-19-9a1 1 0 0 0 -.86 0l-19 9a1 1 0 0 0 .43 1.9h1v3a1 1 0 0 0 1 1h2v8h-2a1 1 0 0 0 -1 1v4a1 1 0 0 0 1 1h34a1 1 0 0 0 1-1v-4a1 1 0 0 0 -1-1h-2v-8h2a1 1 0 0 0 1-1v-3h1a1 1 0 0 0 .43-1.9zm-19.43-6.99 14.55 6.89h-29.1zm16 22.89v2h-32v-2zm-29-2v-8h2v8zm4 0v-8h2v8zm4 0v-8h2v8zm4 0v-8h2v8zm4 0v-8h2v8zm4 0v-8h2v8zm4 0v-8h2v8zm5-10h-32v-2h32z"/><path d="m45 8a3 3 0 1 0 -3 3 3 3 0 0 0 3-3zm-3 1a1 1 0 1 1 1-1 1 1 0 0 1 -1 1z"/><path d="m5 35h4a1 1 0 0 0 1-1v-10h6v2a1 1 0 0 0 1.64.768l6-5a1 1 0 0 0 0-1.536l-6-5a1 1 0 0 0 -1.64.768v2h-9a3 3 0 0 0 -3 3v13a1 1 0 0 0 1 1zm1-14a1 1 0 0 1 1-1h10a1 1 0 0 0 1-1v-.865l3.438 2.865-3.438 2.865v-.865a1 1 0 0 0 -1-1h-8a1 1 0 0 0 -1 1v10h-2z"/><path d="m59 38h-4a1 1 0 0 0 -1 1v10h-6v-2a1 1 0 0 0 -1.64-.768l-6 5a1 1 0 0 0 0 1.536l6 5a1 1 0 0 0 1.64-.768v-2h9a3 3 0 0 0 3-3v-13a1 1 0 0 0 -1-1zm-1 14a1 1 0 0 1 -1 1h-10a1 1 0 0 0 -1 1v.865l-3.438-2.865 3.438-2.865v.865a1 1 0 0 0 1 1h8a1 1 0 0 0 1-1v-10h2z"/></g></g></svg>