<svg id="Flat" height="512" viewBox="0 0 512 512" width="512" xmlns="http://www.w3.org/2000/svg"><path d="m184 248h304v176h-304z" fill="#35a872"/><circle cx="336" cy="336" fill="#3dc285" r="72"/><circle cx="112" cy="112" fill="#ffd33a" r="80"/><path d="m112 16a96 96 0 1 0 96 96 96.115 96.115 0 0 0 -96-96zm0 176a80 80 0 1 1 80-80 80.093 80.093 0 0 1 -80 80z" fill="#ffb632"/><circle cx="144" cy="112" fill="#ffd33a" r="80"/><path d="m144 16a96 96 0 1 0 96 96 96.115 96.115 0 0 0 -96-96zm0 176a80 80 0 1 1 80-80 80.093 80.093 0 0 1 -80 80z" fill="#ffb632"/><circle cx="176" cy="112" fill="#ffd33a" r="80"/><path d="m176 16a96 96 0 1 0 96 96 96.115 96.115 0 0 0 -96-96zm0 176a80 80 0 1 1 80-80 80.093 80.093 0 0 1 -80 80z" fill="#ffb632"/><path d="m184 248v48a48 48 0 0 0 48-48z" fill="#3dc285"/><path d="m488 248v48a48 48 0 0 1 -48-48z" fill="#3dc285"/><path d="m184 424v-48a48 48 0 0 1 48 48z" fill="#f0dfce"/><path d="m184 280h304v176h-304z" fill="#35a872"/><path d="m184 280v48a48 48 0 0 0 48-48z" fill="#3dc285"/><path d="m488 280v48a48 48 0 0 1 -48-48z" fill="#3dc285"/><path d="m184 456v-48a48 48 0 0 1 48 48z" fill="#f0dfce"/><path d="m488 456v-48a48 48 0 0 0 -48 48z" fill="#3dc285"/><circle cx="336" cy="368" fill="#3dc285" r="72"/><path d="m152 312h304v176h-304z" fill="#35a872"/><g fill="#3dc285"><path d="m152 312v48a48 48 0 0 0 48-48z"/><path d="m456 312v48a48 48 0 0 1 -48-48z"/><path d="m152 488v-48a48 48 0 0 1 48 48z"/><path d="m456 488v-48a48 48 0 0 0 -48 48z"/><circle cx="304" cy="400" r="72"/></g><path d="m216 92a28.026 28.026 0 0 0 -16-25.29v-10.71a8 8 0 0 0 -16 0v8h-16v-8a8 8 0 0 0 -16 0v8h-8a8 8 0 0 0 -8 8v80a8 8 0 0 0 8 8h8v8a8 8 0 0 0 16 0v-8h16v8a8 8 0 0 0 16 0v-10.71a27.968 27.968 0 0 0 7.57-45.29 27.887 27.887 0 0 0 8.43-20zm-28 52h-36v-24h36a12 12 0 0 1 0 24zm0-40h-36v-24h36a12 12 0 0 1 0 24z" fill="#ffb632"/><path d="m424 160h32l-56 56-56-56h40a96 96 0 0 0 -96-96h40a96 96 0 0 1 96 96z" fill="#c3c6c7"/><path d="m112 384c-34.97-.44-64-28.92-64-63.99v-32h-24l40-56 40 56h-24v64c0 17.39 14.72 31.55 32 31.99z" fill="#c3c6c7"/><path d="m328 416a24.022 24.022 0 0 1 -16 22.62v9.38a8 8 0 0 1 -16 0v-8h-8a8 8 0 0 1 0-16h16a8 8 0 0 0 0-16 24 24 0 0 1 -8-46.62v-9.38a8 8 0 0 1 16 0v8h8a8 8 0 0 1 0 16h-16a8 8 0 0 0 0 16 24.032 24.032 0 0 1 24 24z" fill="#35a872"/></svg>