<svg id="Capa_1" enable-background="new 0 0 512 512" height="512" viewBox="0 0 512 512" width="512" xmlns="http://www.w3.org/2000/svg"><g><g><path d="m493.764 173.532c-12.504-36.135-32.651-68.263-59.88-95.491-47.543-47.544-110.755-73.727-177.991-73.727-55.786 0-108.792 18.04-152.386 51.334v-9.203c0-8.284-6.716-15-15-15s-15 6.716-15 15v42.202c0 8.284 6.716 15 15 15h42.202c8.284 0 15-6.716 15-15s-6.716-15-15-15h-.973c36.789-25.562 80.412-39.333 126.157-39.333 59.223 0 114.901 23.063 156.779 64.939 23.99 23.99 41.735 52.282 52.742 84.089 2.147 6.205 7.958 10.1 14.174 10.099 1.627 0 3.283-.267 4.906-.829 7.829-2.709 11.979-11.251 9.27-19.08z" fill="#293f65"/><path d="m423.465 408.353h-42.202c-8.284 0-15 6.716-15 15s6.716 15 15 15h.973c-36.789 25.562-80.412 39.333-126.156 39.333-59.223 0-114.901-23.063-156.779-64.939-24.354-24.354-42.26-53.115-53.221-85.484-2.657-7.848-11.172-12.051-19.018-9.397-7.847 2.657-12.054 11.172-9.397 19.019 12.452 36.773 32.781 69.435 60.423 97.076 47.543 47.544 110.755 73.727 177.992 73.727 55.786 0 108.791-18.04 152.385-51.334v9.203c0 8.284 6.716 15 15 15s15-6.716 15-15v-42.202c0-8.287-6.716-15.002-15-15.002z" fill="#293f65"/><path d="m423.465 408.353h-42.202c-8.284 0-15 6.716-15 15s6.716 15 15 15h.973c-36.789 25.562-80.412 39.333-126.156 39.333-.062 0-.125-.002-.187-.002v30c.062 0 .125.002.187.002 55.786 0 108.791-18.04 152.385-51.334v9.203c0 8.284 6.716 15 15 15s15-6.716 15-15v-42.202c0-8.285-6.716-15-15-15z" fill="#152133"/><path d="m412.671 99.254c23.99 23.99 41.735 52.282 52.742 84.089 2.147 6.205 7.958 10.1 14.174 10.099 1.627 0 3.283-.267 4.906-.829 7.829-2.709 11.979-11.251 9.27-19.08-12.504-36.135-32.651-68.263-59.88-95.491-47.542-47.545-110.754-73.728-177.99-73.728v30c59.223 0 114.901 23.063 156.778 64.94z" fill="#152133"/><path d="m127.706 142.559h-112.706c-8.284 0-15 6.716-15 15v198.498c0 8.284 6.716 15 15 15h112.706c8.284 0 15-6.716 15-15v-198.498c0-8.285-6.716-15-15-15z" fill="#fff5f5"/><path d="m497 150.943h-112.706c-8.284 0-15 6.716-15 15v188.498c0 8.284 6.716 15 15 15h112.706c8.284 0 15-6.716 15-15v-188.498c0-8.284-6.716-15-15-15z" fill="#ece6f2"/></g><path d="m276.058 241.02c-13.57-4.797-28.577-10.591-36.993-17.191-2.645-2.074-3.79-6.825-2.848-11.82.47-2.492 2.664-10.82 11.185-13.387 13.984-4.215 23.579 1.374 27.055 3.973 6.637 4.959 16.035 3.603 20.995-3.033s3.602-16.035-3.033-20.996c-3.149-2.354-11.035-7.514-22.34-10.02v-6.105c0-8.284-6.716-15-15-15s-15 6.716-15 15v7.084c-.443.124-.883.238-1.33.373-16.429 4.948-28.695 18.955-32.012 36.555-3.053 16.2 2.24 31.903 13.815 40.983 9.536 7.478 22.72 13.814 45.509 21.87 15.172 5.363 14.843 17.642 13.998 22.672-1.714 10.199-10.294 21.222-25.079 21.319-14.493.102-19.017-.621-30.156-7.907-6.933-4.536-16.229-2.591-20.764 4.341-4.535 6.933-2.591 16.229 4.341 20.765 12.014 7.859 20.878 11.047 31.679 12.21v6.857c0 8.284 6.716 15 15 15s15-6.716 15-15v-8.298c8.264-2.275 15.795-6.431 22.231-12.345 9.12-8.38 15.276-19.732 17.333-31.968 4.18-24.877-9.317-47.353-33.586-55.932z" fill="#ffdf40"/><g fill="#ffbe40"><path d="m276.058 241.02c-6.712-2.373-13.773-4.99-20.217-7.827v32.363c3.184 1.215 6.565 2.458 10.218 3.75 15.172 5.363 14.843 17.642 13.998 22.672-1.681 9.998-9.962 20.78-24.216 21.294v51.252c7.927-.4 14.237-6.935 14.237-14.961v-8.298c8.264-2.275 15.795-6.431 22.231-12.345 9.12-8.38 15.276-19.732 17.333-31.968 4.182-24.877-9.315-47.353-33.584-55.932z"/><path d="m255.841 147.478v49.656c9.408-.448 15.891 3.423 18.615 5.46 6.637 4.959 16.035 3.603 20.995-3.033s3.602-16.035-3.033-20.996c-3.149-2.354-11.035-7.514-22.34-10.02v-6.105c0-8.027-6.31-14.562-14.237-14.962z"/></g></g></svg>